<?xml version="1.0" standalone="no"?>
<!DOCTYPE svg PUBLIC "-//W3C//DTD SVG 20010904//EN"
 "http://www.w3.org/TR/2001/REC-SVG-20010904/DTD/svg10.dtd">
<svg version="1.0" xmlns="http://www.w3.org/2000/svg"
 width="820.000000pt" height="507.000000pt" viewBox="0 0 820.000000 507.000000"
 preserveAspectRatio="xMidYMid meet">

<g transform="translate(0.000000,507.000000) scale(0.100000,-0.100000)"
fill="#000000" stroke="none">
<path d="M2 4243 l3 -828 2 786 3 786 26 27 27 26 4033 0 4033 0 28 -24 28
-24 5 -634 5 -633 3 663 2 662 -835 0 c-459 0 -835 4 -835 8 0 5 -1469 9
-3265 11 l-3265 2 2 -828z"/>
<path d="M160 4919 c0 -3 -11 -4 -25 -1 -24 4 -25 2 -23 -39 1 -44 1 -44 5 -6
5 40 13 46 33 22 11 -13 15 -14 29 -1 9 8 25 16 36 18 13 3 6 6 -17 9 -21 3
-38 2 -38 -2z"/>
<path d="M370 4855 c0 -30 5 -55 10 -55 6 0 10 8 10 19 0 10 9 21 20 24 45 12
31 67 -16 67 -22 0 -24 -4 -24 -55z m54 36 c9 -14 -4 -41 -20 -41 -8 0 -14 10
-14 25 0 25 23 35 34 16z"/>
<path d="M582 4855 c1 -47 2 -52 7 -25 8 48 38 54 44 8 l4 -33 -1 35 c-1 28
-5 35 -21 35 -11 0 -23 9 -27 20 -3 11 -6 -7 -6 -40z"/>
<path d="M898 4903 c26 -5 29 -28 5 -42 -10 -6 -13 -10 -8 -11 41 0 46 54 5
57 -22 1 -22 1 -2 -4z"/>
<path d="M1009 4893 c-8 -10 -9 -14 -2 -10 8 5 13 -7 16 -40 3 -48 3 -48 5 10
1 31 0 57 -2 57 -2 0 -10 -8 -17 -17z"/>
<path d="M1089 4893 c-8 -10 -9 -14 -2 -10 8 5 13 -7 16 -40 3 -48 3 -48 5 10
1 31 0 57 -2 57 -2 0 -10 -8 -17 -17z"/>
<path d="M1203 4875 c-29 -43 -29 -45 2 -45 17 0 25 -6 26 -17 0 -17 1 -17 7
0 9 20 3 97 -7 97 -3 0 -16 -16 -28 -35z m27 -10 c0 -18 -5 -25 -20 -25 -20 0
-20 1 -4 25 9 14 18 25 20 25 2 0 4 -11 4 -25z"/>
<path d="M1322 4898 c-19 -19 -15 -93 6 -109 14 -11 15 -11 5 1 -16 18 -17 92
-1 108 7 7 10 12 7 12 -3 0 -10 -5 -17 -12z"/>
<path d="M1360 4890 c-26 -48 14 -117 44 -77 7 9 25 17 40 17 18 0 26 -5 27
-17 0 -14 2 -15 6 -3 3 8 11 18 17 22 8 5 7 8 -1 8 -8 0 -13 15 -14 38 0 35
-1 36 -14 17 -45 -64 -42 -62 -58 -41 -9 12 -20 17 -31 13 -27 -11 -14 16 15
30 24 12 24 13 2 13 -12 0 -27 -9 -33 -20z m110 -30 c0 -11 -7 -20 -15 -20
-13 0 -14 4 -5 20 6 11 13 20 15 20 3 0 5 -9 5 -20z m-70 -25 c0 -25 -23 -35
-35 -15 -10 16 2 40 20 40 9 0 15 -9 15 -25z"/>
<path d="M1581 4857 c-1 -58 -1 -58 27 -55 24 3 27 7 27 38 0 28 -4 35 -20 35
-11 0 -23 9 -27 20 -3 11 -6 -5 -7 -38z m44 -18 c0 -15 -7 -25 -17 -27 -13 -3
-18 3 -18 21 0 13 3 27 7 31 13 12 28 -1 28 -25z"/>
<path d="M1748 4893 c7 -12 12 -34 12 -48 0 -14 -5 -36 -12 -48 -10 -20 -10
-21 5 -8 11 9 17 28 17 56 0 28 -6 47 -17 56 -15 13 -15 12 -5 -8z"/>
<path d="M1840 4895 c-10 -12 -6 -20 21 -44 28 -26 30 -31 16 -37 -9 -3 -24
-3 -33 0 -8 3 -12 2 -9 -4 9 -15 41 -12 56 6 12 14 10 19 -14 38 -33 26 -34
43 -4 49 21 4 21 4 1 6 -12 0 -27 -6 -34 -14z"/>
<path d="M7854 4883 l30 -33 -30 -32 -29 -33 33 29 32 30 33 -30 32 -29 -29
33 -30 32 30 33 29 32 -32 -29 -33 -30 -32 30 -33 29 29 -32z"/>
<path d="M530 4890 c0 -5 -6 -10 -14 -10 -7 0 -16 -10 -19 -22 -8 -29 -1 -36
8 -9 10 31 23 25 27 -11 2 -17 10 -33 18 -36 12 -4 13 -2 3 9 -15 15 -17 56
-4 61 5 2 3 9 -5 16 -8 7 -14 8 -14 2z"/>
<path d="M1699 4888 c-3 -32 9 -88 19 -88 6 0 7 45 3 93 -1 12 -21 8 -22 -5z"/>
<path d="M1998 4889 c-2 -6 -2 -28 0 -50 3 -28 9 -39 21 -38 10 0 11 2 4 6
-15 5 -18 60 -4 65 5 2 3 8 -4 15 -9 8 -15 9 -17 2z"/>
<path d="M221 4856 c-14 -15 -30 -22 -42 -19 -10 3 -19 1 -19 -5 0 -6 -8 -12
-17 -14 -10 -3 1 -6 25 -9 30 -3 42 -1 42 8 0 8 14 16 30 20 21 4 30 11 28 21
-5 25 -23 24 -47 -2z"/>
<path d="M455 4860 c17 -65 17 -72 4 -81 -10 -6 -10 -9 -2 -9 27 0 33 36 12
76 -13 25 -18 30 -14 14z"/>
<path d="M672 4868 c-27 -27 -3 -73 35 -66 27 5 25 72 -2 76 -11 1 -26 -3 -33
-10z m43 -28 c0 -29 -32 -41 -41 -16 -9 24 4 48 23 44 12 -2 18 -12 18 -28z"/>
<path d="M751 4836 c1 -42 3 -41 13 7 9 38 34 35 39 -5 4 -33 4 -33 3 2 -1 31
-4 35 -28 36 -26 1 -28 -1 -27 -40z"/>
<path d="M1660 4840 c0 -22 5 -40 10 -40 6 0 10 18 10 40 0 22 -4 40 -10 40
-5 0 -10 -18 -10 -40z"/>
<path d="M1922 4868 c-26 -26 -6 -69 33 -67 17 1 17 2 -4 8 -37 10 -38 31 -2
31 17 0 31 4 31 8 0 12 -22 32 -35 32 -6 0 -16 -5 -23 -12z m38 -8 c0 -5 -9
-10 -21 -10 -11 0 -17 5 -14 10 3 6 13 10 21 10 8 0 14 -4 14 -10z"/>
<path d="M2040 4859 c0 -35 19 -59 45 -57 22 2 25 7 24 43 -1 41 -3 40 -13 -7
-9 -42 -36 -36 -36 7 0 19 -4 35 -10 35 -5 0 -10 -9 -10 -21z"/>
<path d="M2131 4820 c1 -30 4 -45 6 -34 3 15 10 20 22 17 25 -6 45 21 37 52
-5 21 -12 25 -36 23 -30 -2 -30 -3 -29 -58z m54 20 c0 -16 -6 -26 -18 -28 -19
-4 -32 20 -23 44 9 25 41 13 41 -16z"/>
<path d="M6688 4853 c17 -2 47 -2 65 0 17 2 3 4 -33 4 -36 0 -50 -2 -32 -4z"/>
<path d="M920 4833 c0 -14 -8 -23 -22 -26 -22 -4 -22 -4 -2 -6 28 -1 52 25 36
41 -9 9 -12 7 -12 -9z"/>
<path d="M1518 4843 c6 -2 18 -2 25 0 6 3 1 5 -13 5 -14 0 -19 -2 -12 -5z"/>
<path d="M110 4800 c0 -5 5 -10 11 -10 5 0 7 5 4 10 -3 6 -8 10 -11 10 -2 0
-4 -4 -4 -10z"/>
<path d="M3040 4280 c0 -73 4 -120 10 -120 6 0 10 47 10 120 0 73 -4 120 -10
120 -6 0 -10 -47 -10 -120z"/>
<path d="M3117 4393 c-4 -3 -7 -57 -7 -120 0 -94 3 -113 15 -113 13 0 15 20
15 120 0 110 -5 132 -23 113z"/>
<path d="M3740 4280 c0 -93 3 -121 13 -118 7 3 14 29 17 63 6 65 26 89 58 69
12 -8 18 -27 20 -73 2 -45 7 -61 17 -61 22 0 20 108 -1 139 -14 19 -23 22 -55
18 l-38 -5 -3 41 c-2 22 -9 42 -15 45 -10 3 -13 -25 -13 -118z"/>
<path d="M5900 4281 c0 -101 2 -121 15 -121 8 0 15 5 15 12 0 9 3 9 12 0 18
-18 53 -15 79 7 32 26 34 105 5 127 -24 17 -72 18 -83 2 -5 -8 -10 6 -13 36
-3 27 -11 51 -17 54 -10 3 -13 -25 -13 -117z m108 7 c17 -17 15 -74 -4 -92
-18 -19 -28 -20 -55 -6 -21 12 -26 59 -9 91 12 21 50 25 68 7z"/>
<path d="M6090 4380 c0 -19 11 -26 23 -14 8 8 -3 34 -14 34 -5 0 -9 -9 -9 -20z"/>
<path d="M3288 4384 c-5 -4 -8 -56 -8 -116 0 -83 3 -109 13 -106 6 3 13 23 15
46 3 37 6 42 28 42 28 0 65 17 76 34 14 21 8 63 -12 81 -20 18 -100 32 -112
19z m104 -49 c9 -21 8 -28 -7 -45 -10 -11 -31 -20 -47 -20 -27 0 -28 2 -28 45
0 45 0 45 35 45 28 0 38 -5 47 -25z"/>
<path d="M4413 4380 c-36 -15 -27 -26 17 -22 31 3 41 0 47 -13 8 -23 -8 -48
-37 -55 -36 -8 -37 -30 -2 -30 35 0 56 -21 47 -48 -7 -23 -39 -34 -74 -25 -17
4 -22 2 -19 -8 2 -8 21 -15 41 -17 64 -6 105 67 57 101 -18 13 -19 16 -5 27
23 19 19 66 -7 84 -25 18 -33 19 -65 6z"/>
<path d="M5480 4377 c-60 -30 -80 -159 -30 -199 46 -38 110 -8 110 52 0 53
-65 91 -98 58 -9 -9 -12 -6 -12 13 0 34 29 59 68 59 34 0 43 14 16 24 -21 8
-25 8 -54 -7z m48 -119 c18 -18 15 -43 -8 -63 -29 -26 -70 -7 -70 33 0 16 3
32 7 35 11 11 58 8 71 -5z"/>
<path d="M5664 4348 c-15 -24 -40 -59 -56 -78 -41 -51 -37 -60 27 -60 52 0 55
-1 55 -25 0 -14 5 -25 10 -25 6 0 10 11 10 25 0 16 6 25 15 25 8 0 15 5 15 10
0 6 -7 13 -15 16 -11 5 -15 23 -15 74 0 38 -4 72 -10 75 -5 3 -21 -14 -36 -37z
m26 -63 c0 -45 0 -45 -36 -45 -20 0 -34 3 -32 8 9 21 54 82 61 82 4 0 7 -20 7
-45z"/>
<path d="M2352 4273 c2 -74 7 -108 16 -111 9 -3 12 23 12 107 0 93 -2 111 -15
111 -13 0 -15 -16 -13 -107z"/>
<path d="M4683 4363 c-39 -20 -44 -38 -8 -29 l25 6 0 -90 c0 -73 3 -90 15 -90
12 0 15 19 15 110 0 61 -3 110 -7 109 -5 0 -23 -8 -40 -16z"/>
<path d="M4858 4363 c-35 -18 -37 -37 -3 -29 l25 6 0 -90 c0 -53 4 -90 10 -90
6 0 10 43 10 110 0 61 -3 110 -7 109 -5 -1 -20 -8 -35 -16z"/>
<path d="M5140 4371 c0 -4 -22 -38 -50 -75 -27 -37 -50 -71 -50 -76 0 -6 25
-10 55 -10 52 0 55 -1 55 -25 0 -14 5 -25 10 -25 6 0 10 11 10 25 0 16 6 25
15 25 8 0 15 5 15 10 0 6 -7 13 -15 16 -11 5 -15 23 -15 75 0 55 -3 69 -15 69
-8 0 -15 -4 -15 -9z m7 -128 c-3 -2 -19 -3 -37 -1 l-32 3 34 45 33 45 3 -44
c2 -23 1 -45 -1 -48z"/>
<path d="M5353 4353 c-28 -42 -30 -150 -4 -201 12 -23 26 -42 31 -42 13 0 13
0 -10 45 -27 52 -27 133 0 185 23 45 10 55 -17 13z"/>
<path d="M6273 4362 c22 -24 39 -106 31 -150 -3 -21 -15 -52 -25 -70 -13 -22
-15 -32 -7 -30 21 7 58 90 58 131 0 48 -37 137 -58 137 -13 0 -13 -2 1 -18z"/>
<path d="M2777 4363 c-4 -3 -7 -14 -7 -24 0 -9 -6 -20 -12 -23 -10 -5 -10 -7
0 -12 7 -3 12 -25 12 -55 0 -63 13 -89 45 -89 30 0 33 16 5 23 -17 4 -20 14
-20 61 0 49 2 56 20 56 11 0 20 5 20 10 0 6 -9 10 -20 10 -15 0 -20 7 -20 25
0 24 -10 32 -23 18z"/>
<path d="M3640 4350 c0 -10 -8 -24 -17 -30 -17 -10 -17 -10 0 -20 13 -8 17
-24 17 -63 0 -55 12 -77 42 -77 24 0 23 17 -2 25 -17 5 -20 15 -20 61 0 47 2
54 20 54 11 0 20 4 20 9 0 5 -9 11 -20 14 -12 3 -20 14 -20 26 0 12 -4 21 -10
21 -5 0 -10 -9 -10 -20z"/>
<path d="M6180 4350 c0 -10 -8 -24 -17 -30 -17 -10 -17 -10 0 -20 13 -8 17
-24 17 -63 0 -55 12 -77 42 -77 24 0 23 17 -2 25 -17 5 -20 15 -20 61 0 47 2
54 20 54 11 0 20 5 20 10 0 6 -9 10 -20 10 -15 0 -20 7 -20 25 0 14 -4 25 -10
25 -5 0 -10 -9 -10 -20z"/>
<path d="M2440 4240 c0 -47 4 -80 10 -80 6 0 10 21 10 48 0 52 21 92 49 92 30
0 41 -22 41 -83 0 -42 3 -58 13 -55 17 6 20 97 4 128 -14 28 -54 38 -87 20
-13 -7 -20 -7 -20 0 0 5 -4 10 -10 10 -6 0 -10 -33 -10 -80z"/>
<path d="M2638 4309 c-29 -17 -22 -55 12 -69 16 -7 35 -19 42 -27 16 -20 -8
-35 -45 -28 -20 3 -27 1 -25 -8 7 -19 63 -20 82 -2 27 28 19 53 -24 75 -46 23
-45 50 1 50 16 0 29 5 29 10 0 13 -50 12 -72 -1z"/>
<path d="M2891 4311 c-11 -7 -4 -10 24 -13 54 -4 61 -34 11 -43 -43 -9 -70
-36 -61 -64 8 -25 51 -38 76 -23 12 8 20 8 24 2 16 -26 25 -4 25 60 0 58 -3
71 -19 80 -24 12 -61 13 -80 1z m69 -90 c0 -26 -25 -44 -50 -36 -25 8 -26 30
-2 44 28 17 52 13 52 -8z"/>
<path d="M3471 4249 c34 -80 35 -119 2 -134 -28 -12 -30 -25 -5 -25 29 0 46
26 90 133 31 76 36 97 24 95 -9 -2 -23 -27 -35 -60 -10 -32 -22 -58 -26 -58
-5 0 -18 27 -30 60 -13 34 -28 60 -36 60 -11 0 -7 -18 16 -71z"/>
<path d="M3940 4300 c-46 -46 -12 -140 49 -140 46 0 81 35 81 81 0 50 -27 79
-75 79 -22 0 -43 -8 -55 -20z m92 -17 c10 -9 18 -27 18 -40 0 -26 -32 -63 -55
-63 -21 0 -55 36 -55 58 0 28 29 62 52 62 12 0 30 -7 40 -17z"/>
<path d="M4112 4243 c2 -50 7 -78 16 -81 8 -2 12 11 12 48 0 64 13 90 45 90
32 0 45 -26 45 -89 0 -28 5 -51 10 -51 13 0 13 116 0 141 -12 21 -50 25 -81 9
-13 -7 -19 -7 -19 0 0 5 -7 10 -15 10 -13 0 -15 -13 -13 -77z"/>
<path d="M6090 4239 c0 -60 3 -80 13 -77 8 3 13 31 15 81 2 64 0 77 -13 77
-12 0 -15 -15 -15 -81z"/>
<path d="M5780 4250 c0 -5 18 -10 40 -10 22 0 40 5 40 10 0 6 -18 10 -40 10
-22 0 -40 -4 -40 -10z"/>
<path d="M4565 4190 c-7 -12 2 -30 16 -30 12 0 12 27 0 35 -5 3 -12 1 -16 -5z"/>
<path d="M4990 4180 c0 -13 5 -20 13 -17 6 2 12 10 12 17 0 7 -6 15 -12 18 -8
2 -13 -5 -13 -18z"/>
<path d="M2347 3963 c-15 -14 -6 -41 18 -57 33 -22 32 -44 -2 -49 -27 -5 -27
-5 2 -3 41 2 46 36 10 60 -31 20 -28 38 6 47 l24 7 -26 1 c-14 1 -29 -2 -32
-6z"/>
<path d="M2513 3910 c0 -36 2 -50 4 -32 2 17 2 47 0 65 -2 17 -4 3 -4 -33z"/>
<path d="M2843 3910 c0 -36 2 -50 4 -32 2 17 2 47 0 65 -2 17 -4 3 -4 -33z"/>
<path d="M3203 3910 c0 -36 2 -50 4 -32 2 17 2 47 0 65 -2 17 -4 3 -4 -33z"/>
<path d="M3243 3910 c0 -36 2 -50 4 -32 2 17 2 47 0 65 -2 17 -4 3 -4 -33z"/>
<path d="M3332 3908 l1 -63 6 50 6 50 30 -47 c17 -26 33 -48 38 -48 4 0 6 28
5 63 l-1 62 -6 -50 -6 -50 -28 48 c-16 26 -33 47 -38 47 -5 0 -8 -28 -7 -62z"/>
<path d="M4303 3910 c0 -36 2 -50 4 -32 2 17 2 47 0 65 -2 17 -4 3 -4 -33z"/>
<path d="M4343 3910 c0 -36 2 -50 4 -32 2 17 2 47 0 65 -2 17 -4 3 -4 -33z"/>
<path d="M4431 3908 c1 -41 3 -55 8 -38 4 15 16 27 31 30 20 5 25 12 25 35 0
26 -4 30 -32 33 l-33 3 1 -63z m57 30 c-2 -15 -10 -23 -23 -23 -13 0 -21 8
-23 23 -3 18 1 22 23 22 22 0 26 -4 23 -22z"/>
<path d="M4683 3910 c0 -47 1 -55 6 -30 4 26 11 35 26 35 15 0 22 -9 26 -35
l6 -35 2 36 c1 43 -21 68 -43 50 -12 -10 -15 -7 -19 16 -2 15 -4 -1 -4 -37z"/>
<path d="M5253 3910 c0 -36 2 -52 4 -35 9 57 52 63 54 8 1 -26 3 -30 6 -14 3
12 2 34 -1 47 -5 20 -11 23 -30 18 -20 -5 -25 -1 -29 18 -2 12 -4 -6 -4 -42z"/>
<path d="M5460 3951 c0 -14 -5 -18 -18 -14 -25 6 -44 -20 -40 -54 3 -24 8 -28
36 -29 l32 -1 0 59 c0 32 -2 58 -5 58 -3 0 -5 -9 -5 -19z m-2 -58 c-3 -31 -34
-44 -44 -19 -9 24 3 46 26 46 17 0 21 -5 18 -27z"/>
<path d="M5593 3945 c-10 -22 -9 -25 9 -25 15 0 18 5 14 17 -4 9 -1 20 6 25
10 6 10 8 -2 8 -8 0 -20 -11 -27 -25z"/>
<path d="M5833 3910 c0 -36 2 -50 4 -32 2 17 2 47 0 65 -2 17 -4 3 -4 -33z"/>
<path d="M6953 3910 c0 -36 2 -51 4 -33 4 33 31 51 54 37 7 -4 10 -1 7 7 -3 8
-16 13 -31 11 -20 -2 -27 3 -30 20 -2 13 -4 -6 -4 -42z"/>
<path d="M3058 3948 c-3 -7 -3 -32 0 -55 3 -32 8 -43 21 -42 10 0 11 2 4 6
-15 5 -18 60 -4 65 5 2 4 11 -4 21 -9 13 -14 14 -17 5z"/>
<path d="M3732 3940 c-7 -12 -8 -20 -2 -20 5 0 10 -16 10 -35 0 -19 3 -35 8
-35 7 0 9 97 1 105 -3 2 -10 -5 -17 -15z"/>
<path d="M5198 3948 c-3 -7 -3 -32 0 -55 3 -32 9 -43 21 -43 13 0 13 2 2 9
-10 6 -12 20 -8 43 5 36 -6 72 -15 46z"/>
<path d="M6148 3948 c-3 -7 -3 -32 0 -55 3 -32 9 -43 21 -43 13 0 13 2 2 9
-10 6 -12 20 -8 43 5 36 -6 72 -15 46z"/>
<path d="M4157 3943 c-2 -4 -2 -27 1 -50 3 -32 8 -43 21 -42 10 0 11 2 4 6
-16 6 -17 60 -2 65 7 2 6 8 -4 16 -8 7 -17 9 -20 5z"/>
<path d="M5870 3935 c-8 -10 -9 -15 -1 -15 6 0 11 -16 11 -35 0 -19 3 -35 8
-35 8 0 9 86 1 95 -4 3 -12 -1 -19 -10z"/>
<path d="M2437 3922 c-32 -35 -10 -78 35 -69 20 4 20 4 -4 6 -36 1 -39 31 -3
31 27 0 33 18 13 38 -16 16 -22 15 -41 -6z m38 -12 c3 -5 -3 -10 -14 -10 -12
0 -21 5 -21 10 0 6 6 10 14 10 8 0 18 -4 21 -10z"/>
<path d="M2561 3926 c-7 -8 -11 -27 -9 -43 2 -23 8 -28 33 -30 25 -2 26 -1 7
5 -32 10 -32 26 0 30 20 2 25 7 21 20 -12 32 -34 40 -52 18z m39 -16 c0 -5 -9
-10 -20 -10 -11 0 -20 5 -20 10 0 6 9 10 20 10 11 0 20 -4 20 -10z"/>
<path d="M2653 3925 c-17 -12 -20 -21 -14 -42 6 -22 14 -28 37 -30 27 -2 28
-2 4 5 -34 11 -36 55 -2 60 12 2 20 8 17 13 -8 13 -17 11 -42 -6z"/>
<path d="M2710 3930 c0 -5 9 -10 21 -10 11 0 17 5 14 10 -3 6 -13 10 -21 10
-8 0 -14 -4 -14 -10z"/>
<path d="M2905 3930 c-4 -6 -11 -8 -16 -5 -5 4 -8 -13 -8 -37 l2 -43 6 35 c4
26 11 35 26 35 15 0 22 -9 26 -35 l6 -35 2 36 c1 45 -27 77 -44 49z"/>
<path d="M2979 3924 c-10 -13 -10 -17 2 -25 8 -5 17 -9 22 -9 18 0 5 -29 -15
-33 -21 -4 -20 -4 3 -6 34 -1 46 25 19 41 -24 15 -26 28 -5 28 8 0 15 5 15 10
0 15 -26 12 -41 -6z"/>
<path d="M3125 3930 c-3 -5 3 -10 14 -10 28 0 27 -13 -1 -25 -13 -6 -24 -18
-26 -27 -3 -14 3 -18 27 -18 28 0 31 3 31 29 0 16 -3 36 -6 45 -7 18 -30 21
-39 6z m35 -55 c0 -8 -9 -15 -20 -15 -20 0 -26 11 -13 23 12 13 33 7 33 -8z"/>
<path d="M3466 3927 c-12 -9 -17 -23 -14 -42 3 -26 7 -30 33 -30 25 0 30 4 33
28 3 26 -12 57 -27 57 -4 0 -15 -6 -25 -13z m44 -37 c0 -23 -4 -30 -20 -30
-11 0 -23 7 -26 15 -9 23 3 45 26 45 16 0 20 -7 20 -30z"/>
<path d="M3806 3927 c-12 -9 -17 -23 -14 -42 3 -26 7 -30 33 -30 26 0 30 4 33
32 4 39 -24 60 -52 40z m44 -37 c0 -23 -4 -30 -20 -30 -23 0 -35 22 -26 45 3
8 15 15 26 15 16 0 20 -7 20 -30z"/>
<path d="M4005 3930 c-4 -6 -11 -8 -16 -5 -5 4 -8 -13 -8 -37 l2 -43 6 35 c4
26 11 35 26 35 15 0 22 -9 26 -35 l6 -35 2 36 c1 45 -27 77 -44 49z"/>
<path d="M4079 3924 c-10 -13 -10 -17 2 -25 8 -5 17 -9 22 -9 18 0 5 -29 -15
-33 -21 -4 -20 -4 3 -6 34 -1 46 25 19 41 -24 15 -26 28 -5 28 8 0 15 5 15 10
0 15 -26 12 -41 -6z"/>
<path d="M4230 3930 c0 -5 7 -10 15 -10 22 0 18 -14 -7 -25 -13 -6 -24 -18
-26 -28 -3 -15 2 -18 29 -15 35 3 43 24 28 67 -8 21 -39 30 -39 11z m30 -55
c0 -8 -9 -15 -20 -15 -20 0 -26 11 -13 23 12 13 33 7 33 -8z"/>
<path d="M4610 3930 c0 -5 9 -10 20 -10 11 0 20 5 20 10 0 6 -9 10 -20 10 -11
0 -20 -4 -20 -10z"/>
<path d="M4783 3914 c-21 -33 -7 -59 33 -59 25 0 30 4 32 30 3 19 -2 33 -14
42 -25 18 -31 17 -51 -13z m57 -24 c0 -23 -4 -30 -20 -30 -11 0 -23 7 -26 15
-9 23 3 45 26 45 16 0 20 -7 20 -30z"/>
<path d="M4905 3930 c-4 -6 -11 -8 -16 -5 -5 4 -8 -13 -8 -37 l2 -43 6 35 c4
26 11 35 26 35 15 0 22 -9 26 -35 l6 -35 2 36 c1 45 -27 77 -44 49z"/>
<path d="M5511 3926 c-7 -8 -11 -27 -9 -43 2 -23 8 -28 33 -30 25 -2 26 -1 7
5 -33 10 -32 26 1 30 30 4 31 5 17 33 -13 23 -33 25 -49 5z m44 -16 c4 -6 -5
-10 -20 -10 -15 0 -24 4 -20 10 3 6 12 10 20 10 8 0 17 -4 20 -10z"/>
<path d="M5655 3930 c-3 -5 3 -10 14 -10 28 0 27 -18 -1 -22 -15 -2 -24 -11
-26 -25 -3 -20 1 -23 27 -23 28 0 31 3 31 33 0 44 -29 73 -45 47z m28 -55 c1
-5 -6 -11 -15 -13 -11 -2 -18 3 -18 13 0 17 30 18 33 0z"/>
<path d="M5983 3924 c-3 -9 4 -24 18 -37 l23 -21 -25 -7 c-22 -7 -23 -7 -2 -8
32 -1 40 19 15 40 -26 20 -28 29 -7 29 8 0 15 5 15 10 0 16 -30 11 -37 -6z"/>
<path d="M6061 3926 c-7 -8 -11 -27 -9 -43 2 -23 8 -28 33 -30 25 -2 26 -1 7
5 -33 10 -32 26 1 30 30 4 31 5 17 33 -13 23 -33 25 -49 5z m44 -16 c4 -6 -5
-10 -20 -10 -15 0 -24 4 -20 10 3 6 12 10 20 10 8 0 17 -4 20 -10z"/>
<path d="M6200 3930 c0 -5 9 -10 21 -10 11 0 17 5 14 10 -3 6 -13 10 -21 10
-8 0 -14 -4 -14 -10z"/>
<path d="M6323 3933 c-20 -4 -23 -10 -21 -46 1 -36 2 -38 5 -10 5 36 39 56 54
32 10 -16 12 -8 3 15 -3 9 -9 15 -13 15 -3 -1 -16 -4 -28 -6z"/>
<path d="M6411 3926 c-7 -8 -11 -27 -9 -43 2 -23 8 -28 31 -28 35 1 33 -26 -3
-37 l-25 -7 25 2 c16 1 29 12 38 30 16 32 6 56 -13 31 -16 -22 -45 -12 -45 16
0 25 25 37 44 21 9 -8 16 -8 20 -2 4 6 -2 15 -13 20 -26 15 -36 14 -50 -3z"/>
<path d="M6509 3924 c-12 -15 -11 -19 9 -32 28 -18 28 -29 0 -35 -20 -4 -19
-4 5 -6 21 -1 27 3 27 20 0 12 -8 23 -20 26 -11 3 -20 9 -20 14 0 5 9 9 20 9
11 0 20 5 20 10 0 16 -26 12 -41 -6z"/>
<path d="M6677 3922 c-32 -35 -14 -73 33 -71 l25 1 -25 7 c-18 5 -26 15 -28
35 -3 24 0 27 19 24 15 -2 26 -12 30 -28 l7 -25 1 27 c1 17 -6 31 -18 38 -25
13 -25 13 -44 -8z"/>
<path d="M6788 3932 c-14 -3 -18 -13 -17 -45 2 -34 3 -36 6 -12 2 17 12 36 20
42 19 15 15 21 -9 15z"/>
<path d="M6896 3927 c-12 -9 -17 -23 -14 -42 2 -25 8 -30 33 -32 28 -2 28 -1
5 5 -34 11 -36 55 -2 60 12 2 20 8 17 13 -8 12 -18 11 -39 -4z"/>
<path d="M7068 3926 c-32 -24 -19 -76 17 -76 13 0 26 4 29 9 3 4 -5 6 -18 4
-18 -4 -26 0 -31 16 -3 11 -3 25 0 31 11 18 45 11 55 -12 7 -20 9 -20 9 -4 1
16 -24 45 -39 45 -3 0 -13 -6 -22 -13z"/>
<path d="M7168 3926 c-32 -24 -19 -76 17 -76 13 0 26 4 29 9 3 4 -5 6 -18 4
-18 -4 -26 0 -31 16 -3 11 -3 25 0 31 11 18 45 11 55 -12 7 -20 9 -20 9 -4 1
16 -24 45 -39 45 -3 0 -13 -6 -22 -13z"/>
<path d="M7259 3924 c-12 -15 -11 -19 9 -32 28 -18 28 -29 0 -35 -20 -4 -19
-4 5 -6 34 -1 37 29 5 52 l-23 16 23 0 c12 1 22 6 22 11 0 16 -26 12 -41 -6z"/>
<path d="M7341 3926 c-7 -8 -11 -27 -9 -43 2 -23 8 -28 33 -30 25 -2 26 -1 7
5 -32 10 -31 26 1 32 26 5 27 6 12 28 -19 26 -28 27 -44 8z m39 -16 c0 -5 -9
-10 -20 -10 -11 0 -20 5 -20 10 0 6 9 10 20 10 11 0 20 -4 20 -10z"/>
<path d="M3552 3915 c-2 -28 9 -65 19 -65 5 0 9 7 9 15 0 8 -4 15 -9 15 -5 0
-12 12 -14 28 -2 16 -5 19 -5 7z"/>
<path d="M3590 3915 c0 -8 5 -15 10 -15 6 0 10 7 10 15 0 8 -4 15 -10 15 -5 0
-10 -7 -10 -15z"/>
<path d="M3644 3915 c-3 -8 -4 -20 -2 -27 3 -7 7 -1 10 15 6 29 1 36 -8 12z"/>
<path d="M3943 3890 c0 -25 2 -35 4 -22 2 12 2 32 0 45 -2 12 -4 2 -4 -23z"/>
<path d="M4520 3929 c0 -4 7 -23 15 -42 18 -44 18 -42 -1 -61 -14 -15 -14 -16
0 -16 9 0 16 2 16 4 0 2 7 21 16 42 15 35 15 37 0 25 -13 -11 -16 -11 -16 1 0
14 -29 59 -30 47z"/>
<path d="M4585 3919 c-4 -6 -5 -12 -2 -15 2 -3 7 2 10 11 7 17 1 20 -8 4z"/>
<path d="M5070 3915 c0 -8 5 -15 10 -15 6 0 10 7 10 15 0 8 -4 15 -10 15 -5 0
-10 -7 -10 -15z"/>
<path d="M5153 3890 c0 -25 2 -35 4 -22 2 12 2 32 0 45 -2 12 -4 2 -4 -23z"/>
<path d="M5733 3895 c2 -37 4 -40 35 -43 32 -3 32 -3 31 40 l-2 43 -6 -35 c-4
-26 -11 -35 -26 -35 -15 0 -22 9 -27 35 l-6 35 1 -40z"/>
<path d="M6260 3890 c0 -22 5 -40 10 -40 6 0 10 18 10 40 0 22 -4 40 -10 40
-5 0 -10 -18 -10 -40z"/>
<path d="M5031 3910 c-1 -24 10 -60 20 -60 5 0 9 7 9 15 0 8 -4 15 -9 15 -5 0
-12 10 -14 23 -2 12 -5 15 -6 7z"/>
<path d="M5110 3899 c0 -5 5 -7 10 -4 6 3 10 8 10 11 0 2 -4 4 -10 4 -5 0 -10
-5 -10 -11z"/>
<path d="M3610 3885 c0 -18 19 -40 26 -32 4 4 0 15 -9 24 -9 10 -17 13 -17 8z"/>
<path d="M5090 3876 c0 -8 5 -18 10 -21 6 -3 10 1 10 9 0 8 -4 18 -10 21 -5 3
-10 -1 -10 -9z"/>
<path d="M4630 3860 c0 -5 5 -10 11 -10 5 0 7 5 4 10 -3 6 -8 10 -11 10 -2 0
-4 -4 -4 -10z"/>
<path d="M6210 3860 c0 -6 7 -10 15 -10 8 0 15 2 15 4 0 2 -7 6 -15 10 -8 3
-15 1 -15 -4z"/>
<path d="M2728 3853 c7 -3 16 -2 19 1 4 3 -2 6 -13 5 -11 0 -14 -3 -6 -6z"/>
<path d="M2363 3723 c-16 -11 -23 -26 -23 -49 0 -40 23 -64 58 -63 l27 2 -25
4 c-36 7 -50 22 -50 52 0 33 17 51 48 51 13 0 20 4 17 10 -9 14 -26 12 -52 -7z"/>
<path d="M3681 3675 c-1 -60 -1 -61 29 -63 24 -2 31 2 36 22 10 41 1 61 -26
61 -16 0 -27 7 -32 20 -3 11 -6 -7 -7 -40z m43 9 c21 -8 21 -53 0 -61 -23 -8
-38 12 -30 41 7 28 7 29 30 20z"/>
<path d="M3783 3670 c0 -36 2 -50 4 -32 2 17 2 47 0 65 -2 17 -4 3 -4 -33z"/>
<path d="M4227 3710 c-3 -13 -10 -18 -21 -14 -37 14 -63 -49 -32 -75 8 -7 25
-9 40 -5 24 6 26 10 26 60 0 57 -4 68 -13 34z m-3 -43 c16 -25 -16 -56 -38
-37 -19 15 -20 32 -4 48 15 15 28 11 42 -11z"/>
<path d="M4461 3673 c-1 -41 3 -63 10 -63 7 0 9 10 7 24 -3 13 1 31 8 41 11
15 16 16 29 5 22 -18 18 -45 -7 -58 -15 -7 -18 -11 -7 -11 36 -2 54 55 24 79
-8 6 -23 9 -34 5 -15 -4 -21 -1 -24 17 -2 13 -5 -5 -6 -39z"/>
<path d="M4563 3670 c0 -36 2 -50 4 -32 2 17 2 47 0 65 -2 17 -4 3 -4 -33z"/>
<path d="M4750 3720 c0 -5 7 -7 15 -4 8 4 15 8 15 10 0 2 -7 4 -15 4 -8 0 -15
-4 -15 -10z"/>
<path d="M2633 3705 c-8 -9 -9 -16 -3 -20 6 -3 10 -22 10 -41 0 -19 3 -34 8
-34 7 0 8 98 0 105 -1 2 -9 -3 -15 -10z"/>
<path d="M3198 3708 c-3 -7 -3 -32 0 -55 3 -32 9 -43 21 -43 13 0 13 2 2 9
-10 6 -12 20 -8 43 5 36 -6 72 -15 46z"/>
<path d="M2454 3660 c1 -44 2 -45 34 -46 31 -1 32 0 31 40 l-2 41 -6 -35 c-4
-26 -11 -35 -26 -35 -16 0 -21 9 -26 40 l-7 40 2 -45z"/>
<path d="M2554 3685 c-7 -18 3 -35 22 -35 8 0 14 -7 14 -16 0 -11 -6 -15 -20
-11 -11 3 -20 1 -20 -5 0 -5 10 -8 22 -6 30 4 37 38 9 45 -27 7 -27 21 2 33
l22 9 -23 0 c-12 1 -25 -6 -28 -14z"/>
<path d="M2694 3676 c-10 -41 -1 -61 28 -64 23 -3 29 2 34 24 8 33 -6 58 -34
62 -16 2 -23 -3 -28 -22z m54 -25 c-4 -35 -41 -37 -46 -2 -4 26 13 42 35 34 8
-3 13 -16 11 -32z"/>
<path d="M2803 3693 c-8 -3 -13 -21 -12 -46 l1 -42 8 38 c9 46 15 53 35 37 11
-9 19 -10 27 -2 19 19 38 1 39 -37 1 -25 3 -29 6 -12 3 12 2 33 -1 46 -5 20
-12 23 -48 22 -24 0 -49 -2 -55 -4z"/>
<path d="M2943 3655 c0 -27 2 -38 4 -22 2 15 2 37 0 50 -2 12 -4 0 -4 -28z"/>
<path d="M2993 3689 c10 -6 14 -15 10 -22 -4 -7 0 -6 10 2 25 20 21 31 -10 31
-24 -1 -26 -2 -10 -11z"/>
<path d="M3054 3676 c-10 -43 -1 -61 31 -63 27 -2 28 -1 6 5 -37 11 -38 32 -2
32 34 0 36 2 21 31 -15 27 -48 24 -56 -5z m46 -1 c0 -8 -9 -15 -20 -15 -22 0
-27 15 -7 23 21 9 27 7 27 -8z"/>
<path d="M3262 3688 c-26 -26 -10 -78 23 -78 27 0 40 28 31 66 -7 26 -34 32
-54 12z m43 -34 c0 -32 -21 -39 -38 -12 -8 12 -7 21 3 32 19 24 35 14 35 -20z"/>
<path d="M3404 3676 c-10 -43 -1 -61 31 -63 27 -2 28 -1 6 5 -37 11 -38 32 -2
32 34 0 36 2 21 31 -15 27 -48 24 -56 -5z m46 -1 c0 -8 -9 -15 -20 -15 -22 0
-27 15 -7 23 21 9 27 7 27 -8z"/>
<path d="M3503 3693 c-8 -3 -13 -21 -12 -46 l1 -42 8 38 c8 45 12 49 34 41 10
-4 16 -19 17 -43 1 -25 3 -29 6 -12 11 54 -12 81 -54 64z"/>
<path d="M3618 3688 c12 -6 22 -15 22 -19 0 -4 -10 -9 -22 -11 -15 -2 -24 -11
-26 -25 -3 -20 1 -23 27 -23 28 0 31 3 31 29 0 44 -10 61 -34 60 -21 0 -21 0
2 -11z m20 -50 c-7 -19 -38 -22 -38 -4 0 10 9 16 21 16 12 0 19 -5 17 -12z"/>
<path d="M3822 3688 c-28 -28 -7 -79 33 -77 19 0 19 1 -2 9 -31 12 -29 30 2
30 14 0 25 6 25 13 0 16 -20 37 -35 37 -6 0 -16 -5 -23 -12z m42 -13 c4 -11
-2 -15 -21 -15 -21 0 -24 2 -13 15 7 8 16 15 20 15 4 0 10 -7 14 -15z"/>
<path d="M3962 3688 c-13 -13 -15 -37 -6 -62 8 -21 50 -21 58 0 5 14 4 15 -9
4 -12 -10 -18 -10 -30 0 -8 7 -15 18 -15 25 0 7 7 18 15 25 12 10 18 10 30 0
13 -11 14 -10 9 4 -7 19 -35 21 -52 4z"/>
<path d="M4068 3693 c-14 -3 -18 -14 -16 -46 1 -37 2 -38 5 -10 3 19 14 39 26
48 21 15 18 17 -15 8z"/>
<path d="M4304 3685 c-7 -18 3 -35 22 -35 8 0 14 -7 14 -16 0 -11 -6 -15 -20
-11 -11 3 -20 1 -20 -4 0 -5 11 -9 25 -9 32 0 36 39 5 47 -24 6 -21 29 4 27 9
-1 16 2 16 7 0 15 -40 10 -46 -6z"/>
<path d="M4410 3685 c24 -13 24 -14 5 -21 -52 -19 -54 -54 -4 -54 26 0 29 3
29 33 0 36 -15 57 -39 57 -10 -1 -7 -6 9 -15z m10 -50 c0 -8 -7 -15 -15 -15
-8 0 -15 7 -15 15 0 8 7 15 15 15 8 0 15 -7 15 -15z"/>
<path d="M4611 3686 c-7 -8 -11 -27 -9 -43 2 -23 8 -28 33 -30 27 -2 28 -1 6
5 -37 11 -38 32 -2 32 34 0 36 2 21 31 -13 23 -33 25 -49 5z m39 -11 c0 -8 -9
-15 -20 -15 -22 0 -27 15 -7 23 21 9 27 7 27 -8z"/>
<path d="M4735 3690 c3 -5 12 -10 20 -10 8 0 17 5 20 10 4 6 -5 10 -20 10 -15
0 -24 -4 -20 -10z"/>
<path d="M4794 3676 c-10 -43 -1 -61 31 -63 27 -2 28 -1 6 5 -37 11 -38 32 -2
32 34 0 36 2 21 31 -15 27 -48 24 -56 -5z m46 -7 c0 -5 -9 -9 -20 -9 -22 0
-27 16 -7 23 15 5 27 -1 27 -14z"/>
<path d="M4910 3685 c24 -13 24 -14 5 -21 -52 -19 -54 -54 -4 -54 26 0 29 3
29 33 0 36 -15 57 -39 57 -10 -1 -7 -6 9 -15z m10 -50 c0 -8 -7 -15 -15 -15
-8 0 -15 7 -15 15 0 8 7 15 15 15 8 0 15 -7 15 -15z"/>
<path d="M4968 3688 c9 -9 15 -9 24 0 9 9 7 12 -12 12 -19 0 -21 -3 -12 -12z"/>
<path d="M5034 3660 c1 -44 2 -45 34 -46 31 -1 32 0 31 40 -1 42 -3 41 -13 -7
-10 -43 -39 -32 -47 18 l-7 40 2 -45z"/>
<path d="M5143 3693 c-8 -2 -13 -20 -12 -41 l1 -37 8 34 c4 18 14 37 22 42 14
9 1 11 -19 2z"/>
<path d="M5194 3676 c-10 -43 -1 -61 31 -63 27 -2 28 -1 6 5 -37 11 -38 32 -2
32 34 0 36 2 21 31 -15 27 -48 24 -56 -5z m46 -7 c0 -5 -9 -9 -20 -9 -22 0
-27 16 -7 23 15 5 27 -1 27 -14z"/>
<path d="M5283 3684 c-4 -10 1 -22 10 -29 22 -16 22 -32 0 -38 -14 -4 -13 -5
3 -6 22 -1 39 23 28 40 -3 5 -12 9 -20 9 -8 0 -14 7 -14 16 0 10 6 14 15 10 8
-3 15 -1 15 4 0 17 -30 11 -37 -6z"/>
<path d="M4263 3650 c0 -25 2 -35 4 -22 2 12 2 32 0 45 -2 12 -4 2 -4 -23z"/>
<path d="M2982 3638 c-20 -20 -14 -28 21 -27 24 1 26 3 9 6 -15 3 -22 10 -18
19 7 17 4 18 -12 2z"/>
<path d="M4980 3620 c0 -5 5 -10 11 -10 5 0 7 5 4 10 -3 6 -8 10 -11 10 -2 0
-4 -4 -4 -10z"/>
<path d="M8194 3160 c0 -190 2 -267 3 -172 2 94 2 250 0 345 -1 94 -3 17 -3
-173z"/>
<path d="M4 3175 c0 -110 2 -156 3 -103 2 53 2 143 0 200 -1 57 -3 13 -3 -97z"/>
<path d="M995 3282 c-144 -31 -195 -83 -195 -198 l0 -64 154 0 c128 0 155 -3
160 -15 3 -8 3 -22 0 -30 -5 -13 -43 -15 -258 -15 -248 0 -252 0 -286 -24 -45
-30 -74 -90 -95 -197 -16 -80 -16 -91 0 -175 20 -107 36 -144 81 -184 32 -28
40 -30 114 -30 l80 0 0 85 c0 89 9 122 49 170 53 66 65 69 301 75 233 6 251
10 291 64 23 30 24 40 27 218 4 208 -1 226 -60 272 -71 53 -238 75 -363 48z
m-15 -92 c26 -26 25 -64 -2 -90 -39 -36 -92 -21 -111 33 -21 58 67 103 113 57z"/>
<path d="M2590 3164 c0 -6 5 -15 12 -22 9 -9 -7 -12 -75 -12 -51 0 -87 -4 -87
-10 0 -6 35 -10 86 -10 65 0 83 -3 78 -12 -5 -9 -2 -9 9 1 22 18 21 34 -3 56
-11 10 -20 14 -20 9z"/>
<path d="M2848 3153 c7 -3 16 -2 19 1 4 3 -2 6 -13 5 -11 0 -14 -3 -6 -6z"/>
<path d="M2938 3153 c6 -2 18 -2 25 0 6 3 1 5 -13 5 -14 0 -19 -2 -12 -5z"/>
<path d="M3008 3153 c6 -2 18 -2 25 0 6 3 1 5 -13 5 -14 0 -19 -2 -12 -5z"/>
<path d="M3088 3153 c6 -2 18 -2 25 0 6 3 1 5 -13 5 -14 0 -19 -2 -12 -5z"/>
<path d="M3498 3153 c6 -2 18 -2 25 0 6 3 1 5 -13 5 -14 0 -19 -2 -12 -5z"/>
<path d="M3630 3139 c0 -5 5 -7 10 -4 6 3 10 8 10 11 0 2 -4 4 -10 4 -5 0 -10
-5 -10 -11z"/>
<path d="M3098 3113 c6 -2 18 -2 25 0 6 3 1 5 -13 5 -14 0 -19 -2 -12 -5z"/>
<path d="M3498 3063 c7 -3 16 -2 19 1 4 3 -2 6 -13 5 -11 0 -14 -3 -6 -6z"/>
<path d="M2798 2953 c7 -3 16 -2 19 1 4 3 -2 6 -13 5 -11 0 -14 -3 -6 -6z"/>
<path d="M4403 2953 c9 -2 23 -2 30 0 6 3 -1 5 -18 5 -16 0 -22 -2 -12 -5z"/>
<path d="M5178 2953 c6 -2 18 -2 25 0 6 3 1 5 -13 5 -14 0 -19 -2 -12 -5z"/>
<path d="M5878 2953 c6 -2 18 -2 25 0 6 3 1 5 -13 5 -14 0 -19 -2 -12 -5z"/>
<path d="M6418 2953 c6 -2 18 -2 25 0 6 3 1 5 -13 5 -14 0 -19 -2 -12 -5z"/>
<path d="M6025 2920 c-3 -5 1 -10 10 -10 9 0 13 5 10 10 -3 6 -8 10 -10 10 -2
0 -7 -4 -10 -10z"/>
<path d="M5443 2875 c0 -27 2 -38 4 -22 2 15 2 37 0 50 -2 12 -4 0 -4 -28z"/>
<path d="M5680 2916 c0 -2 7 -7 16 -10 8 -3 12 -2 9 4 -6 10 -25 14 -25 6z"/>
<path d="M6791 2904 c0 -11 3 -14 6 -6 3 7 2 16 -1 19 -3 4 -6 -2 -5 -13z"/>
<path d="M2788 2853 c6 -2 18 -2 25 0 6 3 1 5 -13 5 -14 0 -19 -2 -12 -5z"/>
<path d="M2978 2853 c6 -2 18 -2 25 0 6 3 1 5 -13 5 -14 0 -19 -2 -12 -5z"/>
<path d="M3058 2853 c7 -3 16 -2 19 1 4 3 -2 6 -13 5 -11 0 -14 -3 -6 -6z"/>
<path d="M3138 2853 c7 -3 16 -2 19 1 4 3 -2 6 -13 5 -11 0 -14 -3 -6 -6z"/>
<path d="M3248 2853 c7 -3 16 -2 19 1 4 3 -2 6 -13 5 -11 0 -14 -3 -6 -6z"/>
<path d="M3438 2853 c7 -3 16 -2 19 1 4 3 -2 6 -13 5 -11 0 -14 -3 -6 -6z"/>
<path d="M3598 2853 c7 -3 16 -2 19 1 4 3 -2 6 -13 5 -11 0 -14 -3 -6 -6z"/>
<path d="M3938 2853 c7 -3 16 -2 19 1 4 3 -2 6 -13 5 -11 0 -14 -3 -6 -6z"/>
<path d="M4398 2853 c6 -2 18 -2 25 0 6 3 1 5 -13 5 -14 0 -19 -2 -12 -5z"/>
<path d="M4768 2853 c6 -2 18 -2 25 0 6 3 1 5 -13 5 -14 0 -19 -2 -12 -5z"/>
<path d="M4848 2853 c7 -3 16 -2 19 1 4 3 -2 6 -13 5 -11 0 -14 -3 -6 -6z"/>
<path d="M4938 2853 c7 -3 16 -2 19 1 4 3 -2 6 -13 5 -11 0 -14 -3 -6 -6z"/>
<path d="M5328 2853 c7 -3 16 -2 19 1 4 3 -2 6 -13 5 -11 0 -14 -3 -6 -6z"/>
<path d="M5748 2853 c7 -3 16 -2 19 1 4 3 -2 6 -13 5 -11 0 -14 -3 -6 -6z"/>
<path d="M6188 2853 c7 -3 16 -2 19 1 4 3 -2 6 -13 5 -11 0 -14 -3 -6 -6z"/>
<path d="M6728 2853 c7 -3 16 -2 19 1 4 3 -2 6 -13 5 -11 0 -14 -3 -6 -6z"/>
<path d="M6888 2853 c7 -3 16 -2 19 1 4 3 -2 6 -13 5 -11 0 -14 -3 -6 -6z"/>
<path d="M8195 2290 c0 -278 1 -391 2 -253 2 139 2 367 0 505 -1 139 -2 26 -2
-252z"/>
<path d="M5000 2539 c0 -5 5 -7 10 -4 6 3 10 8 10 11 0 2 -4 4 -10 4 -5 0 -10
-5 -10 -11z"/>
<path d="M3985 2520 c-3 -5 -1 -10 4 -10 6 0 11 5 11 10 0 6 -2 10 -4 10 -3 0
-8 -4 -11 -10z"/>
<path d="M5092 2510 c0 -14 2 -19 5 -12 2 6 2 18 0 25 -3 6 -5 1 -5 -13z"/>
<path d="M4 2385 c0 -60 1 -84 3 -52 2 32 2 81 0 110 -2 29 -3 3 -3 -58z"/>
<path d="M3045 2360 c-8 -13 9 -20 24 -11 10 6 9 10 -3 14 -8 3 -18 2 -21 -3z"/>
<path d="M2928 2353 c7 -3 16 -2 19 1 4 3 -2 6 -13 5 -11 0 -14 -3 -6 -6z"/>
<path d="M3128 2353 c7 -3 16 -2 19 1 4 3 -2 6 -13 5 -11 0 -14 -3 -6 -6z"/>
<path d="M3448 2353 c7 -3 16 -2 19 1 4 3 -2 6 -13 5 -11 0 -14 -3 -6 -6z"/>
<path d="M3553 2353 c9 -2 23 -2 30 0 6 3 -1 5 -18 5 -16 0 -22 -2 -12 -5z"/>
<path d="M3778 2353 c7 -3 16 -2 19 1 4 3 -2 6 -13 5 -11 0 -14 -3 -6 -6z"/>
<path d="M3948 2353 c7 -3 16 -2 19 1 4 3 -2 6 -13 5 -11 0 -14 -3 -6 -6z"/>
<path d="M4030 2356 c0 -2 7 -7 16 -10 8 -3 12 -2 9 4 -6 10 -25 14 -25 6z"/>
<path d="M4218 2353 c7 -3 16 -2 19 1 4 3 -2 6 -13 5 -11 0 -14 -3 -6 -6z"/>
<path d="M4468 2353 c7 -3 16 -2 19 1 4 3 -2 6 -13 5 -11 0 -14 -3 -6 -6z"/>
<path d="M4678 2353 c7 -3 16 -2 19 1 4 3 -2 6 -13 5 -11 0 -14 -3 -6 -6z"/>
<path d="M4768 2353 c7 -3 16 -2 19 1 4 3 -2 6 -13 5 -11 0 -14 -3 -6 -6z"/>
<path d="M4868 2353 c7 -3 16 -2 19 1 4 3 -2 6 -13 5 -11 0 -14 -3 -6 -6z"/>
<path d="M4928 2353 c7 -3 16 -2 19 1 4 3 -2 6 -13 5 -11 0 -14 -3 -6 -6z"/>
<path d="M5038 2353 c7 -3 16 -2 19 1 4 3 -2 6 -13 5 -11 0 -14 -3 -6 -6z"/>
<path d="M2901 2324 c0 -11 3 -14 6 -6 3 7 2 16 -1 19 -3 4 -6 -2 -5 -13z"/>
<path d="M3101 2324 c0 -11 3 -14 6 -6 3 7 2 16 -1 19 -3 4 -6 -2 -5 -13z"/>
<path d="M4342 2320 c0 -14 2 -19 5 -12 2 6 2 18 0 25 -3 6 -5 1 -5 -13z"/>
<path d="M3 2230 c0 -25 2 -35 4 -22 2 12 2 32 0 45 -2 12 -4 2 -4 -23z"/>
<path d="M4 2080 c0 -58 1 -81 3 -52 2 28 2 76 0 105 -2 28 -3 5 -3 -53z"/>
<path d="M2 1830 c0 -19 2 -27 5 -17 2 9 2 25 0 35 -3 9 -5 1 -5 -18z"/>
<path d="M5 990 c0 -443 1 -624 2 -403 2 222 2 584 0 805 -1 222 -2 41 -2
-402z"/>
<path d="M8193 1690 c0 -47 2 -66 4 -42 2 23 2 61 0 85 -2 23 -4 4 -4 -43z"/>
<path d="M2560 1694 c0 -6 9 -19 20 -29 11 -10 20 -22 20 -27 0 -4 -39 -8 -86
-8 -54 0 -83 -4 -79 -10 3 -5 45 -10 92 -10 l87 0 -29 -30 c-16 -16 -24 -30
-19 -30 6 0 25 16 44 35 l34 35 -42 43 c-23 23 -42 37 -42 31z"/>
<path d="M2803 1693 c9 -2 25 -2 35 0 9 3 1 5 -18 5 -19 0 -27 -2 -17 -5z"/>
<path d="M3082 1663 c-8 -8 -9 -13 -2 -13 5 0 10 -18 10 -39 0 -22 3 -42 8
-45 4 -2 6 14 4 36 -3 22 0 43 6 47 6 4 6 10 -2 17 -9 8 -15 7 -24 -3z"/>
<path d="M4332 1663 c-7 -7 -8 -13 -3 -13 5 0 11 -19 13 -42 2 -23 8 -43 16
-44 7 -1 8 0 2 3 -12 6 -13 80 -1 85 5 2 4 8 -3 14 -8 8 -15 7 -24 -3z"/>
<path d="M3965 1660 c-4 -6 6 -10 22 -10 22 0 25 2 13 10 -19 12 -27 12 -35 0z"/>
<path d="M2949 1620 c-6 -45 -4 -58 7 -48 3 3 4 26 2 49 l-3 44 -6 -45z"/>
<path d="M2993 1644 c-4 -11 1 -22 13 -30 10 -7 25 -18 32 -24 8 -8 12 -8 12
0 0 6 -11 16 -25 22 -33 15 -32 36 3 41 l27 4 -28 2 c-17 0 -30 -5 -34 -15z"/>
<path d="M3152 1648 c-14 -14 -16 -64 -3 -72 4 -3 8 11 7 31 -1 34 2 38 29 44
28 6 28 7 5 8 -15 0 -31 -4 -38 -11z"/>
<path d="M3303 1653 c9 -2 17 -12 17 -21 0 -13 3 -13 12 -4 10 10 10 15 -2 22
-8 5 -22 9 -30 9 -11 -1 -10 -3 3 -6z"/>
<path d="M3368 1650 c17 -7 22 -18 23 -47 1 -25 3 -30 6 -14 8 40 -5 71 -30
70 l-22 0 23 -9z"/>
<path d="M3480 1656 c0 -8 51 -13 56 -5 3 5 -9 9 -25 9 -17 0 -31 -2 -31 -4z"/>
<path d="M3598 1653 c7 -3 16 -2 19 1 4 3 -2 6 -13 5 -11 0 -14 -3 -6 -6z"/>
<path d="M3818 1650 c17 -7 22 -18 24 -47 l1 -38 4 33 c5 37 -10 62 -36 61
-11 0 -9 -3 7 -9z"/>
<path d="M3898 1653 c6 -2 18 -2 25 0 6 3 1 5 -13 5 -14 0 -19 -2 -12 -5z"/>
<path d="M4053 1653 c9 -2 23 -2 30 0 6 3 -1 5 -18 5 -16 0 -22 -2 -12 -5z"/>
<path d="M4253 1653 c9 -2 23 -2 30 0 6 3 -1 5 -18 5 -16 0 -22 -2 -12 -5z"/>
<path d="M4403 1615 c0 -27 2 -38 4 -22 2 15 2 37 0 50 -2 12 -4 0 -4 -28z"/>
<path d="M4452 1648 c-13 -13 -17 -68 -4 -68 4 0 7 15 7 32 0 28 4 33 30 39
28 6 28 7 5 8 -15 0 -31 -4 -38 -11z"/>
<path d="M4590 1656 c0 -2 9 -6 20 -9 11 -3 18 -1 14 4 -5 9 -34 13 -34 5z"/>
<path d="M2751 1629 c0 -15 7 -33 17 -40 15 -12 16 -12 5 1 -6 8 -13 26 -16
40 l-4 25 -2 -26z"/>
<path d="M3260 1635 c0 -8 2 -15 4 -15 2 0 6 7 10 15 3 8 1 15 -4 15 -6 0 -10
-7 -10 -15z"/>
<path d="M3770 1639 c0 -5 5 -7 10 -4 6 3 10 8 10 11 0 2 -4 4 -10 4 -5 0 -10
-5 -10 -11z"/>
<path d="M4560 1639 c0 -5 5 -7 10 -4 6 3 10 8 10 11 0 2 -4 4 -10 4 -5 0 -10
-5 -10 -11z"/>
<path d="M3880 1631 c0 -13 39 -35 48 -27 3 3 0 6 -6 6 -6 0 -18 7 -26 16 -9
8 -16 11 -16 5z"/>
<path d="M4090 1631 c0 -5 -13 -11 -30 -14 -20 -4 -30 -12 -30 -24 1 -17 1
-17 11 0 14 25 52 23 44 -2 -3 -11 -1 -22 5 -26 6 -4 10 9 10 34 0 23 -2 41
-5 41 -3 0 -5 -4 -5 -9z"/>
<path d="M4290 1631 c0 -5 -13 -11 -30 -14 -20 -4 -30 -12 -30 -24 1 -17 1
-17 11 0 14 25 52 23 44 -2 -3 -11 -1 -22 5 -26 6 -4 10 9 10 34 0 23 -2 41
-5 41 -3 0 -5 -4 -5 -9z"/>
<path d="M3560 1610 c0 -20 31 -50 51 -50 8 0 3 6 -10 13 -37 18 -38 37 -2 37
16 0 32 3 34 8 3 4 -13 7 -34 7 -30 1 -39 -3 -39 -15z"/>
<path d="M3496 1603 c-6 -14 -5 -15 5 -6 7 7 10 15 7 18 -3 3 -9 -2 -12 -12z"/>
<path d="M4632 1595 c0 -16 2 -22 5 -12 2 9 2 23 0 30 -3 6 -5 -1 -5 -18z"/>
<path d="M8193 1565 c0 -22 2 -30 4 -17 2 12 2 30 0 40 -3 9 -5 -1 -4 -23z"/>
<path d="M2890 1581 c0 -10 19 -25 25 -20 1 2 -3 10 -11 17 -8 7 -14 8 -14 3z"/>
<path d="M3480 1570 c0 -5 14 -10 32 -10 36 0 35 4 -4 14 -17 4 -28 2 -28 -4z"/>
<path d="M2803 1563 c9 -2 23 -2 30 0 6 3 -1 5 -18 5 -16 0 -22 -2 -12 -5z"/>
<path d="M2998 1563 c6 -2 18 -2 25 0 6 3 1 5 -13 5 -14 0 -19 -2 -12 -5z"/>
<path d="M3178 1563 c7 -3 16 -2 19 1 4 3 -2 6 -13 5 -11 0 -14 -3 -6 -6z"/>
<path d="M3888 1563 c6 -2 18 -2 25 0 6 3 1 5 -13 5 -14 0 -19 -2 -12 -5z"/>
<path d="M4248 1563 c7 -3 16 -2 19 1 4 3 -2 6 -13 5 -11 0 -14 -3 -6 -6z"/>
<path d="M4478 1563 c7 -3 16 -2 19 1 4 3 -2 6 -13 5 -11 0 -14 -3 -6 -6z"/>
<path d="M8195 850 c0 -366 1 -515 2 -332 2 182 2 482 0 665 -1 182 -2 33 -2
-333z"/>
<path d="M2788 1453 c6 -2 18 -2 25 0 6 3 1 5 -13 5 -14 0 -19 -2 -12 -5z"/>
<path d="M2850 1405 c0 -32 3 -56 6 -52 3 3 6 26 6 52 0 26 -3 49 -6 53 -3 3
-6 -21 -6 -53z"/>
<path d="M3293 1405 c0 -33 2 -45 4 -27 2 18 2 45 0 60 -2 15 -4 0 -4 -33z"/>
<path d="M4152 1439 c-8 -19 -4 -94 4 -86 2 2 5 24 6 48 0 24 6 47 12 51 8 5
7 8 -2 8 -7 0 -16 -9 -20 -21z"/>
<path d="M4348 1427 c-7 -21 6 -70 20 -73 7 -1 8 0 2 3 -12 6 -13 50 -1 55 5
2 3 8 -4 15 -10 9 -14 9 -17 0z"/>
<path d="M2752 1405 c0 -16 2 -22 5 -12 2 9 2 23 0 30 -3 6 -5 -1 -5 -18z"/>
<path d="M3560 1420 c0 -5 7 -10 16 -10 8 0 12 5 9 10 -3 6 -10 10 -16 10 -5
0 -9 -4 -9 -10z"/>
<path d="M2887 1413 c6 -4 13 -22 16 -38 4 -27 5 -27 3 4 0 21 -7 36 -16 38
-10 3 -11 2 -3 -4z"/>
<path d="M2944 1405 c-3 -8 -4 -20 -1 -27 3 -7 6 -2 6 11 1 19 5 23 26 19 13
-3 22 -1 19 3 -9 14 -44 10 -50 -6z"/>
<path d="M3036 1411 c-4 -5 3 -7 14 -4 23 6 26 13 6 13 -8 0 -17 -4 -20 -9z"/>
<path d="M3128 1413 c7 -3 16 -2 19 1 4 3 -2 6 -13 5 -11 0 -14 -3 -6 -6z"/>
<path d="M3198 1413 c7 -3 16 -2 19 1 4 3 -2 6 -13 5 -11 0 -14 -3 -6 -6z"/>
<path d="M3336 1411 c-4 -5 3 -7 14 -4 23 6 26 13 6 13 -8 0 -17 -4 -20 -9z"/>
<path d="M3438 1413 c7 -3 16 -2 19 1 4 3 -2 6 -13 5 -11 0 -14 -3 -6 -6z"/>
<path d="M3508 1413 c7 -3 16 -2 19 1 4 3 -2 6 -13 5 -11 0 -14 -3 -6 -6z"/>
<path d="M3670 1416 c0 -2 9 -6 20 -9 11 -3 18 -1 14 4 -5 9 -34 13 -34 5z"/>
<path d="M3741 1381 c1 -36 1 -36 8 -6 8 40 38 46 44 8 4 -28 4 -28 3 2 -1 26
-5 30 -28 31 -26 1 -28 -2 -27 -35z"/>
<path d="M3889 1411 c11 -7 11 -9 0 -14 -10 -4 -10 -6 -1 -6 18 -1 14 -29 -5
-34 -14 -4 -12 -5 5 -6 19 -1 22 4 22 34 0 27 -4 35 -17 35 -14 0 -15 -2 -4
-9z"/>
<path d="M3940 1386 c0 -20 2 -36 4 -36 8 0 12 61 4 66 -4 3 -8 -11 -8 -30z"/>
<path d="M3977 1413 c6 -4 13 -22 16 -38 4 -27 5 -27 3 4 0 21 -7 36 -16 38
-10 3 -11 2 -3 -4z"/>
<path d="M4035 1410 c-3 -6 1 -7 9 -4 18 7 21 14 7 14 -6 0 -13 -4 -16 -10z"/>
<path d="M4076 1405 c4 -8 8 -15 10 -15 2 0 4 7 4 15 0 8 -4 15 -10 15 -5 0
-7 -7 -4 -15z"/>
<path d="M4228 1413 c7 -3 16 -2 19 1 4 3 -2 6 -13 5 -11 0 -14 -3 -6 -6z"/>
<path d="M4298 1413 c7 -3 16 -2 19 1 4 3 -2 6 -13 5 -11 0 -14 -3 -6 -6z"/>
<path d="M4402 1395 c0 -16 2 -22 5 -12 2 9 2 23 0 30 -3 6 -5 -1 -5 -18z"/>
<path d="M4450 1391 c0 -23 -5 -31 -22 -34 -20 -4 -19 -4 5 -6 25 -1 27 2 27
34 0 19 -2 35 -5 35 -3 0 -5 -13 -5 -29z"/>
<path d="M4493 1385 c0 -22 2 -30 4 -17 2 12 2 30 0 40 -3 9 -5 -1 -4 -23z"/>
<path d="M4544 1406 c-11 -28 1 -51 26 -53 22 -1 22 -1 3 4 -13 2 -23 11 -23
18 0 7 10 16 23 18 21 4 21 4 -3 6 -23 2 -24 3 -5 11 18 8 18 9 2 9 -10 1 -20
-5 -23 -13z"/>
<path d="M4628 1413 c7 -3 16 -2 19 1 4 3 -2 6 -13 5 -11 0 -14 -3 -6 -6z"/>
<path d="M3652 1390 c0 -14 2 -19 5 -12 2 6 2 18 0 25 -3 6 -5 1 -5 -13z"/>
<path d="M4200 1386 c0 -13 3 -17 8 -10 4 7 18 14 32 16 23 3 22 4 -7 9 -28 5
-33 3 -33 -15z"/>
<path d="M3180 1383 c0 -12 3 -14 8 -7 4 7 16 14 27 17 15 4 14 5 -7 6 -21 1
-28 -4 -28 -16z"/>
<path d="M3508 1393 c6 -2 18 -2 25 0 6 3 1 5 -13 5 -14 0 -19 -2 -12 -5z"/>
<path d="M4298 1393 c7 -3 16 -2 19 1 4 3 -2 6 -13 5 -11 0 -14 -3 -6 -6z"/>
<path d="M3490 1368 c0 -12 7 -18 23 -17 15 0 17 2 7 6 -8 3 -18 11 -22 17 -5
7 -8 4 -8 -6z"/>
<path d="M4075 1370 c-3 -5 -1 -10 4 -10 6 0 11 5 11 10 0 6 -2 10 -4 10 -3 0
-8 -4 -11 -10z"/>
<path d="M3685 1360 c-16 -7 -17 -9 -3 -9 9 -1 20 4 23 9 7 11 7 11 -20 0z"/>
<path d="M4295 1360 c-19 -8 -19 -9 3 -9 12 -1 22 4 22 9 0 6 -1 10 -2 9 -2 0
-12 -4 -23 -9z"/>
<path d="M2788 1353 c6 -2 18 -2 25 0 6 3 1 5 -13 5 -14 0 -19 -2 -12 -5z"/>
<path d="M2958 1353 c6 -2 18 -2 25 0 6 3 1 5 -13 5 -14 0 -19 -2 -12 -5z"/>
<path d="M3048 1353 c7 -3 16 -2 19 1 4 3 -2 6 -13 5 -11 0 -14 -3 -6 -6z"/>
<path d="M3118 1353 c6 -2 18 -2 25 0 6 3 1 5 -13 5 -14 0 -19 -2 -12 -5z"/>
<path d="M3198 1353 c6 -2 18 -2 25 0 6 3 1 5 -13 5 -14 0 -19 -2 -12 -5z"/>
<path d="M3348 1353 c7 -3 16 -2 19 1 4 3 -2 6 -13 5 -11 0 -14 -3 -6 -6z"/>
<path d="M3438 1353 c7 -3 16 -2 19 1 4 3 -2 6 -13 5 -11 0 -14 -3 -6 -6z"/>
<path d="M4228 1353 c6 -2 18 -2 25 0 6 3 1 5 -13 5 -14 0 -19 -2 -12 -5z"/>
<path d="M4618 1353 c6 -2 18 -2 25 0 6 3 1 5 -13 5 -14 0 -19 -2 -12 -5z"/>
<path d="M720 795 c0 -90 4 -145 10 -145 6 0 10 32 10 75 0 60 3 76 18 84 16
10 16 10 0 11 -15 0 -18 10 -18 60 0 33 -4 60 -10 60 -6 0 -10 -55 -10 -145z"/>
<path d="M609 863 c-3 -81 4 -190 13 -200 6 -7 18 -13 27 -13 14 1 13 2 -2 11
-16 9 -18 23 -17 92 3 117 1 137 -10 137 -5 0 -10 -12 -11 -27z"/>
<path d="M304 808 c9 -12 16 -41 16 -63 0 -71 -47 -107 -94 -72 -15 11 -17 25
-14 80 2 42 -1 66 -7 64 -14 -5 -19 -237 -5 -251 7 -7 10 6 10 42 l0 51 49 -6
c48 -5 50 -5 70 28 12 19 21 45 21 59 0 29 -34 90 -50 90 -7 0 -5 -9 4 -22z"/>
<path d="M402 754 c-2 -91 5 -104 58 -103 l35 1 -32 9 c-42 12 -47 21 -54 104
l-6 70 -1 -81z"/>
<path d="M523 760 c0 -39 -5 -75 -12 -83 -9 -12 -8 -16 5 -21 21 -8 11 -54
-18 -78 -11 -10 -16 -18 -11 -18 5 0 19 9 31 20 20 19 22 30 22 135 0 63 -4
115 -9 115 -5 0 -8 -31 -8 -70z"/>
<path d="M823 812 c13 -14 17 -38 17 -90 0 -41 4 -72 10 -72 6 0 10 33 10 78
0 78 -9 102 -39 102 -12 0 -11 -3 2 -18z"/>
<path d="M1223 812 c13 -14 17 -38 17 -90 0 -41 4 -72 10 -72 6 0 10 33 10 78
0 78 -9 102 -39 102 -12 0 -11 -3 2 -18z"/>
<path d="M926 798 c-20 -28 -21 -92 -2 -107 11 -9 12 -2 8 38 -2 26 1 58 7 70
15 28 6 27 -13 -1z"/>
<path d="M1030 813 c0 -6 5 -15 11 -19 8 -4 10 -28 6 -68 -5 -54 -4 -59 9 -42
20 29 18 89 -6 117 -10 13 -19 19 -20 12z"/>
<path d="M1117 813 c-11 -10 -8 -163 2 -163 5 0 11 38 13 85 3 81 0 94 -15 78z"/>
<path d="M2763 593 c9 -2 25 -2 35 0 9 3 1 5 -18 5 -19 0 -27 -2 -17 -5z"/>
<path d="M3793 593 c9 -2 23 -2 30 0 6 3 -1 5 -18 5 -16 0 -22 -2 -12 -5z"/>
<path d="M3983 593 c9 -2 23 -2 30 0 6 3 -1 5 -18 5 -16 0 -22 -2 -12 -5z"/>
<path d="M4413 593 c9 -2 25 -2 35 0 9 3 1 5 -18 5 -19 0 -27 -2 -17 -5z"/>
<path d="M4948 593 c7 -3 16 -2 19 1 4 3 -2 6 -13 5 -11 0 -14 -3 -6 -6z"/>
<path d="M5603 593 c9 -2 25 -2 35 0 9 3 1 5 -18 5 -19 0 -27 -2 -17 -5z"/>
<path d="M5773 593 c9 -2 23 -2 30 0 6 3 -1 5 -18 5 -16 0 -22 -2 -12 -5z"/>
<path d="M2588 553 c6 -2 18 -2 25 0 6 3 1 5 -13 5 -14 0 -19 -2 -12 -5z"/>
<path d="M2688 553 c7 -3 16 -2 19 1 4 3 -2 6 -13 5 -11 0 -14 -3 -6 -6z"/>
<path d="M2778 553 c6 -2 18 -2 25 0 6 3 1 5 -13 5 -14 0 -19 -2 -12 -5z"/>
<path d="M2998 553 c7 -3 16 -2 19 1 4 3 -2 6 -13 5 -11 0 -14 -3 -6 -6z"/>
<path d="M3448 553 c7 -3 16 -2 19 1 4 3 -2 6 -13 5 -11 0 -14 -3 -6 -6z"/>
<path d="M3808 553 c7 -3 16 -2 19 1 4 3 -2 6 -13 5 -11 0 -14 -3 -6 -6z"/>
<path d="M3888 553 c7 -3 16 -2 19 1 4 3 -2 6 -13 5 -11 0 -14 -3 -6 -6z"/>
<path d="M3988 553 c6 -2 18 -2 25 0 6 3 1 5 -13 5 -14 0 -19 -2 -12 -5z"/>
<path d="M4428 553 c6 -2 18 -2 25 0 6 3 1 5 -13 5 -14 0 -19 -2 -12 -5z"/>
<path d="M4788 553 c7 -3 16 -2 19 1 4 3 -2 6 -13 5 -11 0 -14 -3 -6 -6z"/>
<path d="M5238 553 c7 -3 16 -2 19 1 4 3 -2 6 -13 5 -11 0 -14 -3 -6 -6z"/>
<path d="M5398 553 c7 -3 16 -2 19 1 4 3 -2 6 -13 5 -11 0 -14 -3 -6 -6z"/>
<path d="M5618 553 c6 -2 18 -2 25 0 6 3 1 5 -13 5 -14 0 -19 -2 -12 -5z"/>
<path d="M5778 553 c6 -2 18 -2 25 0 6 3 1 5 -13 5 -14 0 -19 -2 -12 -5z"/>
<path d="M913 470 c0 -30 2 -43 4 -27 2 15 2 39 0 55 -2 15 -4 2 -4 -28z"/>
<path d="M2378 393 c18 -2 45 -2 60 0 15 2 0 4 -33 4 -33 0 -45 -2 -27 -4z"/>
<path d="M2587 363 c-10 -10 -8 -25 2 -19 8 6 21 -15 21 -35 0 -13 -38 -11
-42 2 -2 6 -9 -5 -15 -25 -6 -20 -8 -36 -3 -36 4 0 10 9 13 20 6 25 45 27 63
3 20 -27 17 -2 -6 51 -22 49 -23 50 -33 39z"/>
<path d="M3163 315 c0 -33 2 -48 4 -33 4 27 33 45 53 33 5 -3 11 -18 11 -33 2
-23 2 -24 6 -5 7 36 -15 66 -42 59 -19 -5 -24 -2 -28 16 -2 13 -4 -4 -4 -37z"/>
<path d="M4021 313 c1 -32 4 -48 6 -37 3 15 14 24 34 28 26 5 30 10 27 33 -2
23 -8 29 -35 31 l-33 3 1 -58z m53 38 c10 -16 -6 -42 -23 -39 -9 2 -17 13 -19
26 -3 16 2 22 17 22 11 0 22 -4 25 -9z"/>
<path d="M4133 355 c-3 -9 -3 -19 1 -22 3 -4 6 0 6 8 0 11 2 11 10 -1 18 -27
12 -43 -14 -36 -20 5 -26 1 -35 -24 -5 -17 -6 -30 -2 -30 5 0 11 9 14 20 7 28
50 26 71 -2 15 -21 15 -20 0 17 -9 22 -20 50 -25 63 -10 26 -17 28 -26 7z"/>
<path d="M4212 363 c13 -3 18 -18 21 -61 l3 -57 2 57 c2 44 6 58 20 61 9 3 -1
5 -23 5 -22 0 -32 -2 -23 -5z"/>
<path d="M4293 310 c0 -36 2 -50 4 -32 4 29 7 32 38 32 29 0 34 -4 38 -27 2
-16 4 -1 4 32 1 33 -1 51 -4 40 -7 -30 -19 -38 -47 -31 -15 4 -26 15 -29 29
-2 12 -4 -7 -4 -43z"/>
<path d="M3108 347 c-3 -7 -3 -31 0 -54 3 -32 8 -43 21 -42 10 0 11 2 4 6 -15
5 -17 54 -4 69 6 5 4 14 -4 21 -10 9 -14 9 -17 0z"/>
<path d="M3808 347 c-3 -7 -3 -31 0 -54 3 -31 9 -43 20 -43 12 0 13 3 4 12
-14 14 -16 50 -3 64 6 5 4 14 -4 21 -10 9 -14 9 -17 0z"/>
<path d="M7296 344 c-19 -18 -21 -75 -4 -92 7 -7 26 -11 43 -11 27 2 27 2 5 6
-36 7 -50 22 -50 53 0 31 14 46 50 53 l25 4 -27 2 c-15 0 -34 -6 -42 -15z"/>
<path d="M7743 300 c0 -36 2 -50 4 -32 2 17 2 47 0 65 -2 17 -4 3 -4 -33z"/>
<path d="M847 342 c-9 -14 -11 -251 -2 -260 13 -13 15 14 13 139 -2 76 -7 128
-11 121z"/>
<path d="M2671 326 c-7 -8 -11 -27 -9 -43 3 -24 8 -28 36 -29 20 -1 36 5 39
13 9 23 -6 28 -21 7 -14 -18 -16 -18 -32 -2 -26 26 -11 52 27 44 21 -4 29 -2
27 6 -6 17 -54 20 -67 4z"/>
<path d="M2771 326 c-7 -8 -11 -27 -9 -43 3 -24 8 -28 36 -29 20 -1 36 5 39
13 9 23 -6 28 -21 7 -14 -18 -16 -18 -32 -2 -26 26 -11 52 27 44 21 -4 29 -2
27 6 -6 17 -54 20 -67 4z"/>
<path d="M2928 333 c-15 -4 -18 -15 -17 -61 1 -31 3 -49 6 -39 3 10 14 17 27
17 28 0 46 18 46 45 0 23 -18 46 -34 44 -6 -1 -19 -3 -28 -6z m47 -23 c11 -17
-6 -50 -25 -50 -19 0 -36 33 -25 50 3 5 15 10 25 10 10 0 22 -5 25 -10z"/>
<path d="M3272 328 c-28 -28 -7 -78 33 -78 18 0 17 2 -5 13 -32 16 -33 51 -2
55 16 2 25 -3 31 -20 8 -18 10 -19 10 -5 2 37 -42 60 -67 35z"/>
<path d="M3378 333 c-14 -3 -18 -14 -17 -41 2 -30 3 -32 6 -10 4 27 33 45 53
33 5 -3 11 -18 11 -33 2 -23 2 -24 6 -5 5 26 -13 63 -30 62 -7 -1 -20 -3 -29
-6z"/>
<path d="M3511 326 c-7 -8 -11 -27 -9 -43 2 -23 8 -28 33 -30 27 -2 28 -1 6 5
-37 11 -38 32 -2 32 34 0 36 2 21 31 -13 23 -33 25 -49 5z m39 -16 c0 -5 -9
-10 -20 -10 -11 0 -20 5 -20 10 0 6 9 10 20 10 11 0 20 -4 20 -10z"/>
<path d="M3672 328 c-28 -28 -7 -79 33 -77 19 0 19 1 -2 9 -31 12 -29 30 2 30
14 0 25 6 25 13 0 16 -20 37 -35 37 -6 0 -16 -5 -23 -12z m43 -18 c4 -6 -5
-10 -20 -10 -15 0 -24 4 -20 10 3 6 12 10 20 10 8 0 17 -4 20 -10z"/>
<path d="M3872 328 c-28 -28 -7 -78 33 -78 18 0 17 2 -5 13 -34 17 -34 52 0
52 17 0 26 -7 31 -25 l7 -25 1 26 c1 28 -15 49 -39 49 -9 0 -21 -5 -28 -12z"/>
<path d="M446 323 c-11 -11 -6 -23 9 -23 8 0 15 4 15 9 0 13 -16 22 -24 14z"/>
<path d="M3010 324 c0 -7 6 -27 14 -45 13 -30 13 -36 -1 -51 -10 -11 -11 -18
-5 -18 15 0 45 58 38 73 -3 8 -5 6 -6 -3 0 -8 -9 1 -20 20 -11 19 -19 30 -20
24z"/>
<path d="M3065 319 c-4 -6 -5 -12 -2 -15 2 -3 7 2 10 11 7 17 1 20 -8 4z"/>
<path d="M7418 313 c12 -2 22 -8 22 -13 0 -5 -10 -10 -22 -12 -15 -2 -24 -11
-26 -25 -3 -20 1 -23 28 -23 30 0 31 1 28 38 -3 31 -7 37 -28 39 -22 1 -22 1
-2 -4z m22 -53 c0 -5 -9 -10 -20 -10 -11 0 -20 5 -20 10 0 6 9 10 20 10 11 0
20 -4 20 -10z"/>
<path d="M7481 276 l2 -41 6 35 c4 26 11 35 26 35 15 0 22 -9 27 -35 l6 -35
-1 40 c-2 38 -4 40 -34 41 -32 1 -33 0 -32 -40z"/>
<path d="M7584 306 c-3 -8 -4 -25 -2 -38 2 -18 10 -23 33 -25 28 -2 28 -1 5 5
-18 6 -25 15 -25 32 0 17 7 26 25 31 l25 7 -28 1 c-15 1 -30 -5 -33 -13z"/>
<path d="M7654 306 c-3 -8 -4 -25 -2 -38 2 -18 10 -24 33 -25 17 -1 23 0 15 3
-43 16 -44 17 -15 23 41 8 42 45 2 49 -17 2 -29 -2 -33 -12z m51 -6 c4 -6 -5
-10 -20 -10 -15 0 -24 4 -20 10 3 6 12 10 20 10 8 0 17 -4 20 -10z"/>
<path d="M3592 270 c-7 -11 -9 -20 -4 -20 4 0 13 9 20 20 7 11 9 20 4 20 -4 0
-13 -9 -20 -20z"/>
<path d="M3460 259 c0 -5 5 -7 10 -4 6 3 10 8 10 11 0 2 -4 4 -10 4 -5 0 -10
-5 -10 -11z"/>
<path d="M3630 260 c0 -5 5 -10 11 -10 5 0 7 5 4 10 -3 6 -8 10 -11 10 -2 0
-4 -4 -4 -10z"/>
<path d="M1400 232 c-34 -28 -21 -65 30 -85 68 -26 63 -77 -9 -77 -29 -1 -33
-3 -19 -11 22 -12 62 -2 83 21 25 28 10 59 -40 81 -24 10 -45 26 -49 34 -7 20
35 48 59 39 13 -5 16 -4 11 4 -11 18 -41 15 -66 -6z"/>
<path d="M2378 243 c18 -2 45 -2 60 0 15 2 0 4 -33 4 -33 0 -45 -2 -27 -4z"/>
<path d="M160 238 c1 -2 13 -40 28 -85 27 -81 44 -103 50 -63 2 11 -1 20 -6
20 -6 0 -20 29 -32 65 -12 36 -26 65 -31 65 -5 0 -9 -1 -9 -2z"/>
<path d="M274 226 c-4 -10 0 -22 8 -29 8 -7 22 -38 33 -69 10 -33 24 -58 32
-58 7 0 13 6 13 13 0 6 3 23 6 37 6 24 6 24 -9 5 -15 -20 -16 -20 -25 5 -5 14
-13 39 -16 57 -9 40 -33 63 -42 39z"/>
<path d="M450 150 c0 -58 4 -89 10 -85 6 3 10 42 10 85 0 43 -4 82 -10 85 -6
4 -10 -27 -10 -85z"/>
<path d="M623 229 c14 -8 17 -24 17 -84 0 -41 5 -77 10 -80 6 -4 10 23 10 72
0 80 -9 103 -39 103 -13 -1 -13 -2 2 -11z"/>
<path d="M731 214 c-13 -16 -21 -41 -21 -64 0 -37 30 -90 51 -90 6 0 1 12 -10
26 -30 38 -28 98 4 129 15 16 19 25 10 25 -7 0 -23 -12 -34 -26z"/>
<path d="M1100 229 c0 -21 53 -169 60 -169 15 0 19 45 6 52 -7 4 -22 35 -32
68 -17 54 -34 78 -34 49z"/>
<path d="M1206 225 c-9 -24 -7 -37 3 -31 14 9 27 -15 41 -72 15 -65 27 -73 44
-30 15 38 29 105 20 95 -3 -3 -9 -21 -13 -38 -10 -51 -25 -44 -46 23 -20 63
-38 82 -49 53z"/>
<path d="M533 223 c-15 -6 -18 -153 -4 -153 5 0 11 36 13 80 2 44 3 80 3 79 0
0 -6 -3 -12 -6z"/>
<path d="M920 201 c-14 -27 -13 -86 3 -99 9 -8 12 4 12 54 0 35 -1 64 -2 64
-1 0 -7 -9 -13 -19z"/>
<path d="M1040 205 c9 -11 11 -34 7 -73 -5 -51 -4 -55 9 -38 25 35 13 126 -18
126 -7 0 -6 -5 2 -15z"/>
<path d="M251 144 c0 -11 3 -14 6 -6 3 7 2 16 -1 19 -3 4 -6 -2 -5 -13z"/>
</g>
</svg>
